<svg width="36" height="36" viewBox="0 0 36 36" fill="none" xmlns="http://www.w3.org/2000/svg">
<g clip-path="url(#clip0_269_51)">
<path d="M19.94 9.82995C19.8251 9.80158 19.7057 9.79615 19.5887 9.81398C19.4717 9.8318 19.3594 9.87254 19.2581 9.93384C19.1569 9.99515 19.0687 10.0758 18.9987 10.1713C18.9287 10.2667 18.8781 10.375 18.85 10.49L15.41 24.29C15.3817 24.4049 15.3762 24.5242 15.3941 24.6413C15.4119 24.7583 15.4526 24.8706 15.5139 24.9719C15.5752 25.0731 15.6559 25.1613 15.7513 25.2313C15.8468 25.3013 15.9551 25.3518 16.07 25.38H16.29C16.49 25.3794 16.684 25.3122 16.8416 25.1891C16.9991 25.0659 17.1112 24.8938 17.16 24.7L20.6 10.89C20.6485 10.6622 20.6068 10.4245 20.4838 10.2269C20.3607 10.0292 20.1658 9.88694 19.94 9.82995Z" fill="#FF800B"/>
<path d="M30.2099 16.7801L23.6799 12.3301C23.4584 12.1802 23.1865 12.1245 22.924 12.1751C22.6614 12.2257 22.4297 12.3786 22.2799 12.6001C22.13 12.8215 22.0743 13.0934 22.1249 13.356C22.1756 13.6185 22.3284 13.8502 22.5499 14.0001L27.8699 17.6301L22.5499 21.2601C22.3347 21.4114 22.1877 21.6414 22.1409 21.9003C22.0941 22.1592 22.1513 22.4261 22.2999 22.6432C22.4486 22.8602 22.6768 23.01 22.9351 23.0599C23.1934 23.1099 23.461 23.056 23.6799 22.9101L30.2099 18.4601C30.3439 18.3682 30.4536 18.2451 30.5294 18.1014C30.6052 17.9576 30.6448 17.7976 30.6448 17.6351C30.6448 17.4726 30.6052 17.3125 30.5294 17.1688C30.4536 17.025 30.3439 16.9019 30.2099 16.8101V16.7801Z" fill="#FF800B"/>
<path d="M13.7101 12.5901C13.5602 12.3713 13.3296 12.221 13.0689 12.1722C12.8083 12.1234 12.5389 12.1802 12.3201 12.3301L5.79009 16.7801C5.65603 16.8719 5.54637 16.995 5.4706 17.1388C5.39482 17.2825 5.35522 17.4426 5.35522 17.6051C5.35522 17.7675 5.39482 17.9276 5.4706 18.0713C5.54637 18.2151 5.65603 18.3382 5.79009 18.4301L12.3201 22.88C12.4284 22.9562 12.5507 23.01 12.6799 23.0385C12.8092 23.067 12.9428 23.0696 13.073 23.046C13.2033 23.0225 13.3276 22.9733 13.4387 22.9014C13.5498 22.8295 13.6455 22.7362 13.7203 22.627C13.795 22.5178 13.8474 22.3949 13.8743 22.2653C13.9012 22.1357 13.9021 22.002 13.877 21.8721C13.8519 21.7421 13.8012 21.6185 13.7279 21.5083C13.6546 21.3981 13.5602 21.3035 13.4501 21.2301L8.13009 17.6101L13.4501 14.0001C13.5612 13.9258 13.6563 13.83 13.7298 13.7183C13.8033 13.6067 13.8536 13.4814 13.8779 13.35C13.9021 13.2185 13.8998 13.0835 13.8709 12.953C13.8421 12.8225 13.7874 12.6991 13.7101 12.5901Z" fill="#FF800B"/>
</g>
<defs>
<clipPath id="clip0_269_51">
<rect width="36" height="36" fill="white"/>
</clipPath>
</defs>
</svg>
