<svg xmlns="http://www.w3.org/2000/svg" width="20" height="20" viewBox="0 0 20 20" fill="none">
  <path d="M19.6797 4.96368C19.7813 4.86236 19.8618 4.74202 19.9168 4.60953C19.9717 4.47705 20 4.33503 20 4.1916C20 4.04817 19.9717 3.90615 19.9168 3.77367C19.8618 3.64118 19.7813 3.52084 19.6797 3.41952L16.5805 0.320268C16.4792 0.218744 16.3588 0.138199 16.2263 0.0832434C16.0938 0.0282875 15.9518 0 15.8084 0C15.665 0 15.5229 0.0282875 15.3905 0.0832434C15.258 0.138199 15.1376 0.218744 15.0363 0.320268L10.1191 5.23746L5.85902 0.977355C5.00481 0.123143 3.61397 0.123143 2.75976 0.977355L0.678989 3.05813C-0.175223 3.91234 -0.175223 5.30317 0.678989 6.15738L4.9391 10.4175L0 15.3566V20H4.64341L9.59346 15.0499L13.8536 19.3101C14.894 20.3504 16.2957 19.9671 16.9528 19.3101L19.0336 17.2293C19.8878 16.3751 19.8878 14.9842 19.0336 14.13L14.7735 9.86992L19.6797 4.96368ZM2.23409 4.60228L4.30391 2.52151L5.69475 3.91234L4.40248 5.21556L5.94663 6.75971L7.24985 5.45649L8.56402 6.77066L6.48325 8.85144L2.23409 4.60228ZM14.5326 12.7501L13.2293 14.0534L14.7735 15.5975L16.0767 14.2943L17.4675 15.6851L15.3868 17.7659L11.1267 13.5058L13.2074 11.425L14.5326 12.7501ZM3.73444 17.8097H2.19029V16.2656L12.7146 5.74123L14.1383 7.16492L14.2588 7.28538L3.73444 17.8097ZM14.2588 4.18613L15.8029 2.64197L17.3471 4.18613L15.8029 5.73028L14.2588 4.18613Z" fill="#FF800B"/>
</svg>