<svg width="105" height="18" viewBox="0 0 105 18" fill="none" xmlns="http://www.w3.org/2000/svg">
<path d="M5.886 17.144C4.29 17.144 3.012 16.844 2.052 16.244C1.092 15.632 0.612 14.702 0.612 13.454C0.612 12.794 0.726 12.29 0.954 11.942C1.182 11.594 1.518 11.42 1.962 11.42C2.286 11.42 2.55 11.504 2.754 11.672C2.958 11.84 3.06 12.056 3.06 12.32C3.06 12.56 3.042 12.77 3.006 12.95C3.006 12.998 2.994 13.082 2.97 13.202C2.958 13.322 2.952 13.448 2.952 13.58C2.952 14.12 3.222 14.522 3.762 14.786C4.314 15.05 5.082 15.182 6.066 15.182C7.086 15.182 7.884 15.002 8.46 14.642C9.036 14.27 9.324 13.754 9.324 13.094C9.324 12.686 9.192 12.338 8.928 12.05C8.664 11.75 8.334 11.504 7.938 11.312C7.542 11.108 6.984 10.862 6.264 10.574C5.34 10.214 4.584 9.872 3.996 9.548C3.42 9.224 2.922 8.786 2.502 8.234C2.094 7.67 1.89 6.974 1.89 6.146C1.89 5.282 2.118 4.514 2.574 3.842C3.042 3.17 3.708 2.648 4.572 2.276C5.448 1.904 6.474 1.718 7.65 1.718C8.526 1.718 9.33 1.85 10.062 2.114C10.794 2.366 11.376 2.756 11.808 3.284C12.252 3.812 12.474 4.46 12.474 5.228C12.474 5.984 12.36 6.554 12.132 6.938C11.904 7.322 11.568 7.514 11.124 7.514C10.812 7.514 10.548 7.418 10.332 7.226C10.128 7.034 10.026 6.806 10.026 6.542C10.026 6.314 10.044 6.104 10.08 5.912C10.116 5.552 10.134 5.324 10.134 5.228C10.134 4.724 9.888 4.34 9.396 4.076C8.904 3.812 8.292 3.68 7.56 3.68C6.528 3.68 5.736 3.872 5.184 4.256C4.644 4.628 4.374 5.156 4.374 5.84C4.374 6.296 4.512 6.686 4.788 7.01C5.076 7.334 5.43 7.604 5.85 7.82C6.27 8.036 6.858 8.294 7.614 8.594C8.526 8.966 9.258 9.302 9.81 9.602C10.362 9.902 10.83 10.31 11.214 10.826C11.61 11.342 11.808 11.978 11.808 12.734C11.808 14.15 11.268 15.242 10.188 16.01C9.12 16.766 7.686 17.144 5.886 17.144ZM23.1587 12.986C23.3147 12.986 23.4347 13.058 23.5187 13.202C23.6147 13.346 23.6627 13.544 23.6627 13.796C23.6627 14.276 23.5487 14.648 23.3207 14.912C22.7687 15.548 22.1987 16.07 21.6107 16.478C21.0347 16.886 20.3747 17.09 19.6307 17.09C19.0187 17.09 18.5567 16.916 18.2447 16.568C17.9327 16.208 17.7767 15.692 17.7767 15.02C17.7767 14.684 17.8607 14.084 18.0287 13.22C18.1847 12.464 18.2627 11.942 18.2627 11.654C18.2627 11.462 18.1967 11.366 18.0647 11.366C17.9087 11.366 17.6867 11.57 17.3987 11.978C17.1107 12.374 16.8227 12.902 16.5347 13.562C16.2467 14.222 16.0127 14.918 15.8327 15.65C15.6047 16.61 15.0407 17.09 14.1407 17.09C13.7807 17.09 13.5407 16.964 13.4207 16.712C13.3127 16.448 13.2587 15.98 13.2587 15.308C13.2587 14.924 13.2647 14.618 13.2767 14.39L13.2947 12.95C13.2947 11.102 13.4807 9.176 13.8527 7.172C14.2367 5.168 14.7947 3.488 15.5267 2.132C16.2707 0.763999 17.1587 0.079999 18.1907 0.079999C18.7427 0.079999 19.1867 0.319999 19.5227 0.799999C19.8707 1.268 20.0447 1.88 20.0447 2.636C20.0447 3.848 19.6907 5.108 18.9827 6.416C18.2747 7.712 17.1227 9.23 15.5267 10.97C15.4907 11.594 15.4727 12.236 15.4727 12.896C15.8687 11.876 16.3067 11.048 16.7867 10.412C17.2787 9.764 17.7587 9.302 18.2267 9.026C18.7067 8.75 19.1447 8.612 19.5407 8.612C20.3207 8.612 20.7107 9.002 20.7107 9.782C20.7107 10.25 20.5787 11.096 20.3147 12.32C20.0867 13.364 19.9727 14.054 19.9727 14.39C19.9727 14.87 20.1467 15.11 20.4947 15.11C20.7347 15.11 21.0167 14.966 21.3407 14.678C21.6767 14.378 22.1207 13.898 22.6727 13.238C22.8167 13.07 22.9787 12.986 23.1587 12.986ZM17.8127 1.862C17.5967 1.862 17.3567 2.174 17.0927 2.798C16.8287 3.41 16.5707 4.244 16.3187 5.3C16.0787 6.344 15.8807 7.484 15.7247 8.72C16.4687 7.844 17.0807 6.89 17.5607 5.858C18.0527 4.826 18.2987 3.89 18.2987 3.05C18.2987 2.666 18.2567 2.372 18.1727 2.168C18.0887 1.964 17.9687 1.862 17.8127 1.862ZM24.4178 17.09C23.6738 17.09 23.0798 16.82 22.6358 16.28C22.1918 15.74 21.9698 15.032 21.9698 14.156C21.9698 13.196 22.1918 12.29 22.6358 11.438C23.0798 10.574 23.6678 9.884 24.3998 9.368C25.1438 8.84 25.9298 8.576 26.7578 8.576C27.0218 8.576 27.1958 8.63 27.2798 8.738C27.3758 8.834 27.4538 9.014 27.5138 9.278C27.7658 9.23 28.0298 9.206 28.3058 9.206C28.8938 9.206 29.1878 9.416 29.1878 9.836C29.1878 10.088 29.0978 10.688 28.9178 11.636C28.6418 13.016 28.5038 13.976 28.5038 14.516C28.5038 14.696 28.5458 14.84 28.6298 14.948C28.7258 15.056 28.8458 15.11 28.9898 15.11C29.2178 15.11 29.4938 14.966 29.8178 14.678C30.1418 14.378 30.5798 13.898 31.1318 13.238C31.2758 13.07 31.4378 12.986 31.6178 12.986C31.7738 12.986 31.8938 13.058 31.9778 13.202C32.0738 13.346 32.1218 13.544 32.1218 13.796C32.1218 14.276 32.0078 14.648 31.7798 14.912C31.2878 15.524 30.7658 16.04 30.2138 16.46C29.6618 16.88 29.1278 17.09 28.6118 17.09C28.2158 17.09 27.8498 16.958 27.5138 16.694C27.1898 16.418 26.9438 16.046 26.7758 15.578C26.1518 16.586 25.3658 17.09 24.4178 17.09ZM25.0658 15.272C25.3298 15.272 25.5818 15.116 25.8218 14.804C26.0618 14.492 26.2358 14.078 26.3438 13.562L27.0098 10.25C26.5058 10.262 26.0378 10.454 25.6058 10.826C25.1858 11.186 24.8498 11.666 24.5978 12.266C24.3458 12.866 24.2198 13.502 24.2198 14.174C24.2198 14.546 24.2918 14.822 24.4358 15.002C24.5918 15.182 24.8018 15.272 25.0658 15.272ZM31.9369 17.09C31.4809 17.09 31.1569 16.85 30.9649 16.37C30.7849 15.89 30.6949 15.122 30.6949 14.066C30.6949 12.506 30.9169 11.024 31.3609 9.62C31.4689 9.272 31.6429 9.02 31.8829 8.864C32.1349 8.696 32.4829 8.612 32.9269 8.612C33.1669 8.612 33.3349 8.642 33.4309 8.702C33.5269 8.762 33.5749 8.876 33.5749 9.044C33.5749 9.236 33.4849 9.668 33.3049 10.34C33.1849 10.82 33.0889 11.24 33.0169 11.6C32.9449 11.96 32.8849 12.404 32.8369 12.932C33.2329 11.9 33.6769 11.06 34.1689 10.412C34.6609 9.764 35.1409 9.302 35.6089 9.026C36.0889 8.75 36.5269 8.612 36.9229 8.612C37.7029 8.612 38.0929 9.002 38.0929 9.782C38.0929 9.938 38.0389 10.316 37.9309 10.916C37.8349 11.396 37.7869 11.696 37.7869 11.816C37.7869 12.236 37.9369 12.446 38.2369 12.446C38.5729 12.446 39.0049 12.182 39.5329 11.654C39.6889 11.498 39.8509 11.42 40.0189 11.42C40.1749 11.42 40.2949 11.492 40.3789 11.636C40.4749 11.768 40.5229 11.948 40.5229 12.176C40.5229 12.62 40.4029 12.968 40.1629 13.22C39.8269 13.568 39.4309 13.868 38.9749 14.12C38.5309 14.36 38.0569 14.48 37.5529 14.48C36.9169 14.48 36.4309 14.318 36.0949 13.994C35.7709 13.67 35.6089 13.232 35.6089 12.68C35.6089 12.5 35.6269 12.32 35.6629 12.14C35.6869 11.9 35.6989 11.738 35.6989 11.654C35.6989 11.462 35.6329 11.366 35.5009 11.366C35.3209 11.366 35.0809 11.57 34.7809 11.978C34.4929 12.374 34.2049 12.902 33.9169 13.562C33.6289 14.222 33.3949 14.918 33.2149 15.65C33.0829 16.214 32.9269 16.598 32.7469 16.802C32.5789 16.994 32.3089 17.09 31.9369 17.09ZM48.0303 11.474C48.1863 11.474 48.3063 11.552 48.3903 11.708C48.4743 11.864 48.5163 12.062 48.5163 12.302C48.5163 12.878 48.3423 13.22 47.9943 13.328C47.2743 13.58 46.4823 13.724 45.6183 13.76C45.3903 14.768 44.9403 15.578 44.2683 16.19C43.5963 16.79 42.8343 17.09 41.9823 17.09C41.2623 17.09 40.6443 16.916 40.1283 16.568C39.6243 16.22 39.2403 15.758 38.9763 15.182C38.7123 14.606 38.5803 13.982 38.5803 13.31C38.5803 12.398 38.7543 11.588 39.1023 10.88C39.4503 10.16 39.9303 9.602 40.5423 9.206C41.1543 8.798 41.8323 8.594 42.5763 8.594C43.4883 8.594 44.2203 8.912 44.7723 9.548C45.3363 10.172 45.6663 10.946 45.7623 11.87C46.3263 11.834 46.9983 11.714 47.7783 11.51C47.8743 11.486 47.9583 11.474 48.0303 11.474ZM42.1263 15.182C42.5103 15.182 42.8403 15.026 43.1163 14.714C43.4043 14.402 43.5963 13.952 43.6923 13.364C43.3203 13.112 43.0323 12.782 42.8283 12.374C42.6363 11.966 42.5403 11.534 42.5403 11.078C42.5403 10.886 42.5583 10.694 42.5943 10.502H42.5043C42.0243 10.502 41.6223 10.736 41.2983 11.204C40.9863 11.66 40.8303 12.308 40.8303 13.148C40.8303 13.808 40.9563 14.312 41.2083 14.66C41.4723 15.008 41.7783 15.182 42.1263 15.182ZM48.2494 17.09C47.7934 17.09 47.4694 16.85 47.2774 16.37C47.0974 15.89 47.0074 15.122 47.0074 14.066C47.0074 12.506 47.2294 11.024 47.6734 9.62C47.7814 9.272 47.9554 9.02 48.1954 8.864C48.4474 8.696 48.7954 8.612 49.2394 8.612C49.4794 8.612 49.6474 8.642 49.7434 8.702C49.8394 8.762 49.8874 8.876 49.8874 9.044C49.8874 9.236 49.7974 9.668 49.6174 10.34C49.4974 10.82 49.4014 11.24 49.3294 11.6C49.2574 11.96 49.1974 12.404 49.1494 12.932C49.5454 11.9 49.9894 11.06 50.4814 10.412C50.9734 9.764 51.4534 9.302 51.9214 9.026C52.4014 8.75 52.8394 8.612 53.2354 8.612C53.6194 8.612 53.9074 8.714 54.0994 8.918C54.3034 9.11 54.4054 9.398 54.4054 9.782C54.4054 10.094 54.3394 10.682 54.2074 11.546C54.0874 12.278 53.9914 12.974 53.9194 13.634C53.8474 14.282 53.8114 15.008 53.8114 15.812C53.8114 16.268 53.7154 16.598 53.5234 16.802C53.3434 16.994 53.0434 17.09 52.6234 17.09C52.2274 17.09 51.9394 16.988 51.7594 16.784C51.5794 16.58 51.4894 16.274 51.4894 15.866C51.4894 15.386 51.5734 14.594 51.7414 13.49C51.8854 12.53 51.9574 11.918 51.9574 11.654C51.9574 11.462 51.8914 11.366 51.7594 11.366C51.6034 11.366 51.3814 11.57 51.0934 11.978C50.8174 12.374 50.5294 12.902 50.2294 13.562C49.9414 14.222 49.7074 14.918 49.5274 15.65C49.3954 16.214 49.2394 16.598 49.0594 16.802C48.8914 16.994 48.6214 17.09 48.2494 17.09Z" fill="#25282B"/>
<path d="M74.7278 2.06C75.0998 2.132 75.3758 2.258 75.5558 2.438C75.7478 2.618 75.8438 2.828 75.8438 3.068C75.8438 3.464 75.7298 3.752 75.5018 3.932C75.2858 4.112 74.9378 4.184 74.4578 4.148C73.3778 4.064 72.5318 4.01 71.9198 3.986C71.3198 3.95 70.5278 3.926 69.5438 3.914C69.0998 6.122 68.6918 8.342 68.3198 10.574C68.1878 11.39 68.0498 12.338 67.9058 13.418C67.7618 14.486 67.6658 15.35 67.6178 16.01C67.5938 16.358 67.4498 16.628 67.1858 16.82C66.9218 17 66.6038 17.09 66.2318 17.09C65.8358 17.09 65.5298 16.994 65.3138 16.802C65.0978 16.61 64.9898 16.358 64.9898 16.046C64.9898 15.758 65.0318 15.284 65.1158 14.624C65.2118 13.952 65.3198 13.25 65.4398 12.518C65.5718 11.786 65.6738 11.15 65.7458 10.61C65.8778 9.698 66.0278 8.792 66.1958 7.892C66.3638 6.992 66.5318 6.14 66.6998 5.336C66.7358 5.156 66.7778 4.952 66.8258 4.724C66.8738 4.484 66.9278 4.22 66.9878 3.932C65.8118 3.968 64.8878 4.064 64.2158 4.22C63.5438 4.376 63.0638 4.598 62.7758 4.886C62.4998 5.162 62.3618 5.522 62.3618 5.966C62.3618 6.374 62.4818 6.764 62.7218 7.136C62.7698 7.22 62.7938 7.31 62.7938 7.406C62.7938 7.634 62.6558 7.85 62.3798 8.054C62.1158 8.246 61.8398 8.342 61.5518 8.342C61.3478 8.342 61.1798 8.282 61.0478 8.162C60.8078 7.958 60.6098 7.67 60.4538 7.298C60.2978 6.914 60.2198 6.482 60.2198 6.002C60.2198 4.982 60.5498 4.166 61.2098 3.554C61.8818 2.93 62.8958 2.474 64.2518 2.186C65.6198 1.898 67.3718 1.754 69.5078 1.754C70.8278 1.754 71.8778 1.778 72.6578 1.826C73.4498 1.874 74.1398 1.952 74.7278 2.06ZM80.5674 11.474C80.7234 11.474 80.8434 11.552 80.9274 11.708C81.0114 11.864 81.0534 12.062 81.0534 12.302C81.0534 12.878 80.8794 13.22 80.5314 13.328C79.8114 13.58 79.0194 13.724 78.1554 13.76C77.9274 14.768 77.4774 15.578 76.8054 16.19C76.1334 16.79 75.3714 17.09 74.5194 17.09C73.7994 17.09 73.1814 16.916 72.6654 16.568C72.1614 16.22 71.7774 15.758 71.5134 15.182C71.2494 14.606 71.1174 13.982 71.1174 13.31C71.1174 12.398 71.2914 11.588 71.6394 10.88C71.9874 10.16 72.4674 9.602 73.0794 9.206C73.6914 8.798 74.3694 8.594 75.1134 8.594C76.0254 8.594 76.7574 8.912 77.3094 9.548C77.8734 10.172 78.2034 10.946 78.2994 11.87C78.8634 11.834 79.5354 11.714 80.3154 11.51C80.4114 11.486 80.4954 11.474 80.5674 11.474ZM74.6634 15.182C75.0474 15.182 75.3774 15.026 75.6534 14.714C75.9414 14.402 76.1334 13.952 76.2294 13.364C75.8574 13.112 75.5694 12.782 75.3654 12.374C75.1734 11.966 75.0774 11.534 75.0774 11.078C75.0774 10.886 75.0954 10.694 75.1314 10.502H75.0414C74.5614 10.502 74.1594 10.736 73.8354 11.204C73.5234 11.66 73.3674 12.308 73.3674 13.148C73.3674 13.808 73.4934 14.312 73.7454 14.66C74.0094 15.008 74.3154 15.182 74.6634 15.182ZM89.9125 12.986C90.0685 12.986 90.1885 13.058 90.2725 13.202C90.3685 13.346 90.4165 13.544 90.4165 13.796C90.4165 14.276 90.3025 14.648 90.0745 14.912C89.5345 15.572 88.9885 16.1 88.4365 16.496C87.8845 16.892 87.2305 17.09 86.4745 17.09C85.5505 17.09 84.8065 16.826 84.2425 16.298C83.6785 15.77 83.3965 15.068 83.3965 14.192C83.3965 13.724 83.6365 13.388 84.1165 13.184C84.6445 12.956 85.0225 12.716 85.2505 12.464C85.4785 12.2 85.5925 11.882 85.5925 11.51C85.5925 11.294 85.5445 11.132 85.4485 11.024C85.3645 10.916 85.2565 10.862 85.1245 10.862C84.8005 10.862 84.4405 11.096 84.0445 11.564C83.6605 12.032 83.3005 12.638 82.9645 13.382C82.6285 14.114 82.3645 14.87 82.1725 15.65C82.0405 16.214 81.8845 16.598 81.7045 16.802C81.5365 16.994 81.2665 17.09 80.8945 17.09C80.5225 17.09 80.2465 16.958 80.0665 16.694C79.8985 16.418 79.7845 15.998 79.7245 15.434C79.6645 14.87 79.6345 14.042 79.6345 12.95C79.6345 11.102 79.8205 9.176 80.1925 7.172C80.5765 5.168 81.1345 3.488 81.8665 2.132C82.6105 0.763999 83.4985 0.079999 84.5305 0.079999C85.0825 0.079999 85.5265 0.319999 85.8625 0.799999C86.2105 1.268 86.3845 1.88 86.3845 2.636C86.3845 3.848 86.0305 5.108 85.3225 6.416C84.6145 7.712 83.4625 9.23 81.8665 10.97C81.8305 11.594 81.8125 12.236 81.8125 12.896C82.3885 11.396 83.0485 10.31 83.7925 9.638C84.5365 8.954 85.2325 8.612 85.8805 8.612C86.4805 8.612 86.9605 8.816 87.3205 9.224C87.6925 9.632 87.8785 10.136 87.8785 10.736C87.8785 11.396 87.7105 12.002 87.3745 12.554C87.0385 13.106 86.4625 13.598 85.6465 14.03C85.6945 14.354 85.8385 14.618 86.0785 14.822C86.3305 15.014 86.6305 15.11 86.9785 15.11C87.3505 15.11 87.7105 14.966 88.0585 14.678C88.4065 14.39 88.8625 13.91 89.4265 13.238C89.5705 13.07 89.7325 12.986 89.9125 12.986ZM84.1525 1.862C83.9365 1.862 83.6965 2.174 83.4325 2.798C83.1685 3.41 82.9105 4.244 82.6585 5.3C82.4185 6.344 82.2205 7.484 82.0645 8.72C82.8085 7.844 83.4205 6.89 83.9005 5.858C84.3925 4.826 84.6385 3.89 84.6385 3.05C84.6385 2.666 84.5965 2.372 84.5125 2.168C84.4285 1.964 84.3085 1.862 84.1525 1.862ZM91.3236 7.424C90.8196 7.424 90.4416 7.31 90.1896 7.082C89.9376 6.842 89.8116 6.512 89.8116 6.092C89.8116 5.672 89.9736 5.324 90.2976 5.048C90.6336 4.76 91.0476 4.616 91.5396 4.616C91.9836 4.616 92.3436 4.724 92.6196 4.94C92.8956 5.156 93.0336 5.462 93.0336 5.858C93.0336 6.338 92.8776 6.722 92.5656 7.01C92.2536 7.286 91.8396 7.424 91.3236 7.424ZM91.1796 17.09C90.3996 17.09 89.8296 16.814 89.4696 16.262C89.1216 15.71 88.9476 14.978 88.9476 14.066C88.9476 13.526 89.0136 12.836 89.1456 11.996C89.2896 11.144 89.4696 10.352 89.6856 9.62C89.7936 9.236 89.9376 8.972 90.1176 8.828C90.2976 8.684 90.5856 8.612 90.9816 8.612C91.5936 8.612 91.8996 8.816 91.8996 9.224C91.8996 9.524 91.7856 10.22 91.5576 11.312C91.2696 12.632 91.1256 13.526 91.1256 13.994C91.1256 14.354 91.1736 14.63 91.2696 14.822C91.3656 15.014 91.5276 15.11 91.7556 15.11C91.9716 15.11 92.2416 14.96 92.5656 14.66C92.8896 14.36 93.3216 13.886 93.8616 13.238C94.0056 13.07 94.1676 12.986 94.3476 12.986C94.5036 12.986 94.6236 13.058 94.7076 13.202C94.8036 13.346 94.8516 13.544 94.8516 13.796C94.8516 14.276 94.7376 14.648 94.5096 14.912C93.3216 16.364 92.2116 17.09 91.1796 17.09ZM101.423 12.986C101.579 12.986 101.699 13.058 101.783 13.202C101.879 13.346 101.927 13.544 101.927 13.796C101.927 14.276 101.813 14.648 101.585 14.912C101.069 15.548 100.505 16.07 99.8933 16.478C99.2813 16.886 98.5793 17.09 97.7873 17.09C95.3393 17.09 94.1153 15.368 94.1153 11.924C94.1153 11.396 94.1333 10.862 94.1693 10.322H93.4673C93.1073 10.322 92.8613 10.256 92.7293 10.124C92.6093 9.992 92.5493 9.782 92.5493 9.494C92.5493 8.822 92.8193 8.486 93.3593 8.486H94.3853C94.5893 7.166 94.9013 5.96 95.3213 4.868C95.7413 3.776 96.2453 2.906 96.8333 2.258C97.4333 1.61 98.0753 1.286 98.7593 1.286C99.2633 1.286 99.6593 1.508 99.9473 1.952C100.235 2.396 100.379 2.954 100.379 3.626C100.379 5.486 99.5993 7.106 98.0393 8.486H100.055C100.247 8.486 100.385 8.528 100.469 8.612C100.553 8.696 100.595 8.852 100.595 9.08C100.595 9.908 99.9173 10.322 98.5613 10.322H96.3653C96.3413 10.922 96.3293 11.39 96.3293 11.726C96.3293 12.974 96.4733 13.85 96.7613 14.354C97.0613 14.858 97.5293 15.11 98.1653 15.11C98.6813 15.11 99.1373 14.954 99.5333 14.642C99.9293 14.33 100.397 13.862 100.937 13.238C101.081 13.07 101.243 12.986 101.423 12.986ZM98.2733 3.014C98.0933 3.014 97.8893 3.242 97.6613 3.698C97.4453 4.142 97.2353 4.766 97.0312 5.57C96.8393 6.362 96.6773 7.244 96.5453 8.216C97.2533 7.604 97.7813 6.92 98.1293 6.164C98.4893 5.396 98.6693 4.7 98.6693 4.076C98.6693 3.368 98.5373 3.014 98.2733 3.014ZM102.946 7.424C102.442 7.424 102.064 7.31 101.812 7.082C101.56 6.842 101.434 6.512 101.434 6.092C101.434 5.672 101.596 5.324 101.92 5.048C102.256 4.76 102.67 4.616 103.162 4.616C103.606 4.616 103.966 4.724 104.242 4.94C104.518 5.156 104.656 5.462 104.656 5.858C104.656 6.338 104.5 6.722 104.188 7.01C103.876 7.286 103.462 7.424 102.946 7.424ZM101.218 17.09C100.834 17.09 100.57 17.012 100.426 16.856C100.282 16.7 100.21 16.454 100.21 16.118C100.21 16.022 100.222 15.854 100.246 15.614C100.438 13.418 100.756 11.42 101.2 9.62C101.296 9.248 101.452 8.99 101.668 8.846C101.896 8.69 102.256 8.612 102.748 8.612C103.264 8.612 103.522 8.822 103.522 9.242C103.522 9.302 103.51 9.416 103.486 9.584C102.946 12.152 102.622 14.306 102.514 16.046C102.49 16.43 102.376 16.7 102.172 16.856C101.968 17.012 101.65 17.09 101.218 17.09Z" fill="#FF800B"/>
</svg>
